<mxfile host="Electron" agent="Mozilla/5.0 (Macintosh; Intel Mac OS X 10_15_7) AppleWebKit/537.36 (KHTML, like Gecko) draw.io/26.2.15 Chrome/134.0.6998.205 Electron/35.2.1 Safari/537.36" version="26.2.15">
  <diagram name="Page-1" id="AysCdQ7-knlk8cnn3zGX">
    <mxGraphModel dx="1530" dy="903" grid="1" gridSize="10" guides="1" tooltips="1" connect="1" arrows="1" fold="1" page="1" pageScale="1" pageWidth="850" pageHeight="1100" math="0" shadow="0">
      <root>
        <mxCell id="0" />
        <mxCell id="1" parent="0" />
        <mxCell id="S-JD86c8oPenMrIcF_mf-1" value="Uživatel" style="shape=umlActor;verticalLabelPosition=bottom;verticalAlign=top;html=1;outlineConnect=0;fillColor=#dae8fc;strokeColor=#6c8ebf;" parent="1" vertex="1">
          <mxGeometry x="80" y="100" width="30" height="60" as="geometry" />
        </mxCell>
        <mxCell id="S-JD86c8oPenMrIcF_mf-9" value="Zákaznická Podpora" style="shape=umlActor;verticalLabelPosition=bottom;verticalAlign=top;html=1;outlineConnect=0;fillColor=#dae8fc;strokeColor=#6c8ebf;" parent="1" vertex="1">
          <mxGeometry x="80" y="470" width="30" height="60" as="geometry" />
        </mxCell>
        <mxCell id="S-JD86c8oPenMrIcF_mf-10" value="Registrace" style="ellipse;whiteSpace=wrap;html=1;fillColor=#dae8fc;strokeColor=#6c8ebf;" parent="1" vertex="1">
          <mxGeometry x="200" y="60" width="110" height="40" as="geometry" />
        </mxCell>
        <mxCell id="S-JD86c8oPenMrIcF_mf-11" value="Přihlášení" style="ellipse;whiteSpace=wrap;html=1;fillColor=#dae8fc;strokeColor=#6c8ebf;" parent="1" vertex="1">
          <mxGeometry x="200" y="110" width="110" height="40" as="geometry" />
        </mxCell>
        <mxCell id="S-JD86c8oPenMrIcF_mf-14" value="" style="endArrow=none;html=1;rounded=0;exitX=0.5;exitY=0.5;exitDx=0;exitDy=0;exitPerimeter=0;startFill=0;entryX=0;entryY=0.5;entryDx=0;entryDy=0;" parent="1" source="S-JD86c8oPenMrIcF_mf-1" target="S-JD86c8oPenMrIcF_mf-10" edge="1">
          <mxGeometry width="50" height="50" relative="1" as="geometry">
            <mxPoint x="240" y="230" as="sourcePoint" />
            <mxPoint x="410" y="180" as="targetPoint" />
          </mxGeometry>
        </mxCell>
        <mxCell id="S-JD86c8oPenMrIcF_mf-15" value="" style="endArrow=none;html=1;rounded=0;startFill=0;entryX=0;entryY=0.5;entryDx=0;entryDy=0;" parent="1" target="S-JD86c8oPenMrIcF_mf-11" edge="1">
          <mxGeometry width="50" height="50" relative="1" as="geometry">
            <mxPoint x="95" y="130" as="sourcePoint" />
            <mxPoint x="221" y="84" as="targetPoint" />
          </mxGeometry>
        </mxCell>
        <mxCell id="S-JD86c8oPenMrIcF_mf-17" value="UC1:&lt;div&gt;Nákup&lt;/div&gt;" style="ellipse;whiteSpace=wrap;html=1;fillColor=#dae8fc;strokeColor=#6c8ebf;" parent="1" vertex="1">
          <mxGeometry x="440" y="185" width="110" height="40" as="geometry" />
        </mxCell>
        <mxCell id="S-JD86c8oPenMrIcF_mf-19" value="Prohlížení produktů" style="ellipse;whiteSpace=wrap;html=1;fillColor=#dae8fc;strokeColor=#6c8ebf;" parent="1" vertex="1">
          <mxGeometry x="200" y="160" width="110" height="40" as="geometry" />
        </mxCell>
        <mxCell id="S-JD86c8oPenMrIcF_mf-20" value="" style="endArrow=none;html=1;rounded=0;exitX=0.5;exitY=0.5;exitDx=0;exitDy=0;exitPerimeter=0;entryX=0;entryY=0.5;entryDx=0;entryDy=0;" parent="1" source="S-JD86c8oPenMrIcF_mf-1" target="S-JD86c8oPenMrIcF_mf-19" edge="1">
          <mxGeometry width="50" height="50" relative="1" as="geometry">
            <mxPoint x="105" y="140" as="sourcePoint" />
            <mxPoint x="210" y="140" as="targetPoint" />
          </mxGeometry>
        </mxCell>
        <mxCell id="S-JD86c8oPenMrIcF_mf-21" value="Správa ojednávek" style="ellipse;whiteSpace=wrap;html=1;fillColor=#dae8fc;strokeColor=#6c8ebf;" parent="1" vertex="1">
          <mxGeometry x="200" y="510" width="110" height="40" as="geometry" />
        </mxCell>
        <mxCell id="S-JD86c8oPenMrIcF_mf-22" value="" style="endArrow=none;html=1;rounded=0;exitX=0.5;exitY=0.5;exitDx=0;exitDy=0;exitPerimeter=0;entryX=0;entryY=0.5;entryDx=0;entryDy=0;" parent="1" source="S-JD86c8oPenMrIcF_mf-9" target="S-JD86c8oPenMrIcF_mf-21" edge="1">
          <mxGeometry width="50" height="50" relative="1" as="geometry">
            <mxPoint x="260" y="400" as="sourcePoint" />
            <mxPoint x="310" y="350" as="targetPoint" />
          </mxGeometry>
        </mxCell>
        <mxCell id="S-JD86c8oPenMrIcF_mf-23" value="Odpovědět na dotazy uživatelů" style="ellipse;whiteSpace=wrap;html=1;fillColor=#dae8fc;strokeColor=#6c8ebf;" parent="1" vertex="1">
          <mxGeometry x="200" y="460" width="110" height="40" as="geometry" />
        </mxCell>
        <mxCell id="S-JD86c8oPenMrIcF_mf-24" value="" style="endArrow=none;html=1;rounded=0;entryX=0;entryY=0.5;entryDx=0;entryDy=0;exitX=0.5;exitY=0.5;exitDx=0;exitDy=0;exitPerimeter=0;" parent="1" source="S-JD86c8oPenMrIcF_mf-9" target="S-JD86c8oPenMrIcF_mf-23" edge="1">
          <mxGeometry width="50" height="50" relative="1" as="geometry">
            <mxPoint x="100" y="500" as="sourcePoint" />
            <mxPoint x="310" y="350" as="targetPoint" />
          </mxGeometry>
        </mxCell>
        <mxCell id="S-JD86c8oPenMrIcF_mf-26" value="Vývojař" style="shape=umlActor;verticalLabelPosition=bottom;verticalAlign=top;html=1;outlineConnect=0;fillColor=#dae8fc;strokeColor=#6c8ebf;" parent="1" vertex="1">
          <mxGeometry x="80" y="350" width="30" height="60" as="geometry" />
        </mxCell>
        <mxCell id="S-JD86c8oPenMrIcF_mf-27" value="Zálohování" style="ellipse;whiteSpace=wrap;html=1;fillColor=#dae8fc;strokeColor=#6c8ebf;" parent="1" vertex="1">
          <mxGeometry x="200" y="360" width="110" height="40" as="geometry" />
        </mxCell>
        <mxCell id="S-JD86c8oPenMrIcF_mf-28" value="" style="endArrow=none;html=1;rounded=0;exitX=0.5;exitY=0.5;exitDx=0;exitDy=0;exitPerimeter=0;entryX=0;entryY=0.5;entryDx=0;entryDy=0;" parent="1" source="S-JD86c8oPenMrIcF_mf-26" target="S-JD86c8oPenMrIcF_mf-27" edge="1">
          <mxGeometry width="50" height="50" relative="1" as="geometry">
            <mxPoint x="260" y="280" as="sourcePoint" />
            <mxPoint x="310" y="230" as="targetPoint" />
          </mxGeometry>
        </mxCell>
        <mxCell id="S-JD86c8oPenMrIcF_mf-29" value="Aktualizace systému" style="ellipse;whiteSpace=wrap;html=1;fillColor=#dae8fc;strokeColor=#6c8ebf;" parent="1" vertex="1">
          <mxGeometry x="200" y="310" width="110" height="40" as="geometry" />
        </mxCell>
        <mxCell id="S-JD86c8oPenMrIcF_mf-30" value="" style="endArrow=none;html=1;rounded=0;entryX=0;entryY=0.5;entryDx=0;entryDy=0;exitX=0.5;exitY=0.5;exitDx=0;exitDy=0;exitPerimeter=0;" parent="1" source="S-JD86c8oPenMrIcF_mf-26" target="S-JD86c8oPenMrIcF_mf-29" edge="1">
          <mxGeometry width="50" height="50" relative="1" as="geometry">
            <mxPoint x="100" y="380" as="sourcePoint" />
            <mxPoint x="310" y="230" as="targetPoint" />
          </mxGeometry>
        </mxCell>
        <mxCell id="S-JD86c8oPenMrIcF_mf-31" value="Rozšíření funkcí systému" style="ellipse;whiteSpace=wrap;html=1;fillColor=#dae8fc;strokeColor=#6c8ebf;" parent="1" vertex="1">
          <mxGeometry x="200" y="410" width="110" height="40" as="geometry" />
        </mxCell>
        <mxCell id="S-JD86c8oPenMrIcF_mf-32" value="" style="endArrow=none;html=1;rounded=0;entryX=0;entryY=0.5;entryDx=0;entryDy=0;exitX=0.5;exitY=0.5;exitDx=0;exitDy=0;exitPerimeter=0;" parent="1" source="S-JD86c8oPenMrIcF_mf-26" target="S-JD86c8oPenMrIcF_mf-31" edge="1">
          <mxGeometry width="50" height="50" relative="1" as="geometry">
            <mxPoint x="100" y="380" as="sourcePoint" />
            <mxPoint x="210" y="390" as="targetPoint" />
          </mxGeometry>
        </mxCell>
        <mxCell id="S-JD86c8oPenMrIcF_mf-40" value="Administrátor" style="shape=umlActor;verticalLabelPosition=bottom;verticalAlign=top;html=1;outlineConnect=0;fillColor=#dae8fc;strokeColor=#6c8ebf;" parent="1" vertex="1">
          <mxGeometry x="80" y="225" width="30" height="60" as="geometry" />
        </mxCell>
        <mxCell id="S-JD86c8oPenMrIcF_mf-41" value="Spravovat produkt" style="ellipse;whiteSpace=wrap;html=1;fillColor=#dae8fc;strokeColor=#6c8ebf;" parent="1" vertex="1">
          <mxGeometry x="200" y="210" width="110" height="40" as="geometry" />
        </mxCell>
        <mxCell id="S-JD86c8oPenMrIcF_mf-42" value="" style="endArrow=none;html=1;rounded=0;exitX=0.5;exitY=0.5;exitDx=0;exitDy=0;exitPerimeter=0;entryX=0;entryY=0.5;entryDx=0;entryDy=0;" parent="1" source="S-JD86c8oPenMrIcF_mf-40" target="S-JD86c8oPenMrIcF_mf-41" edge="1">
          <mxGeometry width="50" height="50" relative="1" as="geometry">
            <mxPoint x="260" y="155" as="sourcePoint" />
            <mxPoint x="310" y="105" as="targetPoint" />
          </mxGeometry>
        </mxCell>
        <mxCell id="S-JD86c8oPenMrIcF_mf-45" value="Spravovat kategorie" style="ellipse;whiteSpace=wrap;html=1;fillColor=#dae8fc;strokeColor=#6c8ebf;" parent="1" vertex="1">
          <mxGeometry x="200" y="260" width="110" height="40" as="geometry" />
        </mxCell>
        <mxCell id="S-JD86c8oPenMrIcF_mf-46" value="" style="endArrow=none;html=1;rounded=0;entryX=0;entryY=0.5;entryDx=0;entryDy=0;exitX=0.5;exitY=0.5;exitDx=0;exitDy=0;exitPerimeter=0;" parent="1" source="S-JD86c8oPenMrIcF_mf-40" target="S-JD86c8oPenMrIcF_mf-45" edge="1">
          <mxGeometry width="50" height="50" relative="1" as="geometry">
            <mxPoint x="100" y="255" as="sourcePoint" />
            <mxPoint x="210" y="265" as="targetPoint" />
          </mxGeometry>
        </mxCell>
        <mxCell id="S-JD86c8oPenMrIcF_mf-47" value="&amp;lt;&amp;lt;includes&amp;gt;&amp;gt;" style="endArrow=classic;html=1;rounded=0;dashed=1;exitX=1;exitY=0.5;exitDx=0;exitDy=0;entryX=0;entryY=0.5;entryDx=0;entryDy=0;" parent="1" source="S-JD86c8oPenMrIcF_mf-19" target="S-JD86c8oPenMrIcF_mf-17" edge="1">
          <mxGeometry x="-0.0031" width="50" height="50" relative="1" as="geometry">
            <mxPoint x="310" y="130" as="sourcePoint" />
            <mxPoint x="390" y="280" as="targetPoint" />
            <mxPoint as="offset" />
          </mxGeometry>
        </mxCell>
        <mxCell id="S-JD86c8oPenMrIcF_mf-49" value="Platební metody" style="ellipse;whiteSpace=wrap;html=1;fillColor=#dae8fc;strokeColor=#6c8ebf;" parent="1" vertex="1">
          <mxGeometry x="680" y="185" width="110" height="40" as="geometry" />
        </mxCell>
        <mxCell id="S-JD86c8oPenMrIcF_mf-51" value="&amp;lt;&amp;lt;includes&amp;gt;&amp;gt;" style="endArrow=classic;html=1;rounded=0;exitX=1;exitY=0.5;exitDx=0;exitDy=0;dashed=1;entryX=0;entryY=0.5;entryDx=0;entryDy=0;" parent="1" source="S-JD86c8oPenMrIcF_mf-17" target="S-JD86c8oPenMrIcF_mf-49" edge="1">
          <mxGeometry x="-0.0031" width="50" height="50" relative="1" as="geometry">
            <mxPoint x="450" y="215" as="sourcePoint" />
            <mxPoint x="320" y="215" as="targetPoint" />
            <mxPoint as="offset" />
          </mxGeometry>
        </mxCell>
        <mxCell id="S-JD86c8oPenMrIcF_mf-52" value="Procházet kategorie produktů" style="ellipse;whiteSpace=wrap;html=1;fillColor=#dae8fc;strokeColor=#6c8ebf;" parent="1" vertex="1">
          <mxGeometry x="440" y="135" width="110" height="40" as="geometry" />
        </mxCell>
        <mxCell id="S-JD86c8oPenMrIcF_mf-55" value="&amp;lt;&amp;lt;includes&amp;gt;&amp;gt;" style="endArrow=classic;html=1;rounded=0;dashed=1;entryX=0;entryY=0.5;entryDx=0;entryDy=0;exitX=1;exitY=0.5;exitDx=0;exitDy=0;" parent="1" source="S-JD86c8oPenMrIcF_mf-19" edge="1" target="S-JD86c8oPenMrIcF_mf-52">
          <mxGeometry x="-0.0031" width="50" height="50" relative="1" as="geometry">
            <mxPoint x="380" y="90" as="sourcePoint" />
            <mxPoint x="310" y="130" as="targetPoint" />
            <mxPoint as="offset" />
          </mxGeometry>
        </mxCell>
      </root>
    </mxGraphModel>
  </diagram>
</mxfile>
